<?xml version="1.0" encoding="utf-8"?>
<!-- Generator: Adobe Illustrator 16.0.0, SVG Export Plug-In . SVG Version: 6.00 Build 0)  -->
<!DOCTYPE svg PUBLIC "-//W3C//DTD SVG 1.1//EN" "http://www.w3.org/Graphics/SVG/1.1/DTD/svg11.dtd">
<svg version="1.1" id="Layer_1" xmlns="http://www.w3.org/2000/svg" xmlns:xlink="http://www.w3.org/1999/xlink" x="0px" y="0px"
	 width="500px" height="500px" viewBox="0 0 500 500" style="enable-background:new 0 0 500 500;" xml:space="preserve">
<path style="fill:none;stroke:#000000;stroke-width:0.8;stroke-miterlimit:10;" d="M86.357,139.507c0,1.937-1.758,3.507-3.929,3.507
	c-2.169,0-3.928-1.57-3.928-3.507c0-1.937,1.759-3.507,3.928-3.507C84.599,136,86.357,137.57,86.357,139.507z M82.428,143.553
	c-2.169,0-3.928,1.57-3.928,3.507c0,1.937,1.759,3.507,3.928,3.507c2.17,0,3.929-1.57,3.929-3.507
	C86.357,145.123,84.599,143.553,82.428,143.553z M82.428,150.027c-2.169,0-3.928,1.57-3.928,3.507c0,1.937,1.759,3.507,3.928,3.507
	c2.17,0,3.929-1.57,3.929-3.507C86.357,151.597,84.599,150.027,82.428,150.027z M82.428,156.501c-2.169,0-3.928,1.57-3.928,3.507
	c0,1.937,1.759,3.506,3.928,3.506c2.17,0,3.929-1.57,3.929-3.506C86.357,158.071,84.599,156.501,82.428,156.501z M81.112,209.688
	c-2.17,0-3.929,1.57-3.929,3.507c0,1.937,1.759,3.506,3.929,3.506c2.169,0,3.928-1.57,3.928-3.506
	C85.041,211.257,83.282,209.688,81.112,209.688z M81.112,209.688c-2.17,0-3.929,1.57-3.929,3.507c0,1.937,1.759,3.506,3.929,3.506
	c2.169,0,3.928-1.57,3.928-3.506C85.041,211.257,83.282,209.688,81.112,209.688z M107.121,190.688c-1.07,0-1.938,0.774-1.938,1.729
	c0,0.955,0.867,1.729,1.938,1.729c1.07,0,1.937-0.774,1.937-1.729C109.058,191.461,108.191,190.688,107.121,190.688z
	 M107.121,194.688c-1.07,0-1.938,0.774-1.938,1.729c0,0.955,0.867,1.729,1.938,1.729c1.07,0,1.937-0.774,1.937-1.729
	C109.058,195.461,108.191,194.688,107.121,194.688z M107.121,198.688c-1.07,0-1.938,0.774-1.938,1.729
	c0,0.955,0.867,1.729,1.938,1.729c1.07,0,1.937-0.774,1.937-1.729C109.058,199.461,108.191,198.688,107.121,198.688z
	 M107.121,202.688c-1.07,0-1.938,0.774-1.938,1.729c0,0.955,0.867,1.729,1.938,1.729c1.07,0,1.937-0.774,1.937-1.729
	C109.058,203.461,108.191,202.688,107.121,202.688z M107.121,206.688c-1.07,0-1.938,0.774-1.938,1.729
	c0,0.955,0.867,1.729,1.938,1.729c1.07,0,1.937-0.774,1.937-1.729C109.058,207.461,108.191,206.688,107.121,206.688z
	 M107.121,210.688c-1.07,0-1.938,0.774-1.938,1.729c0,0.955,0.867,1.729,1.938,1.729c1.07,0,1.937-0.774,1.937-1.729
	C109.058,211.461,108.191,210.688,107.121,210.688z M107.121,214.688c-1.07,0-1.938,0.774-1.938,1.729
	c0,0.955,0.867,1.729,1.938,1.729c1.07,0,1.937-0.774,1.937-1.729C109.058,215.461,108.191,214.688,107.121,214.688z
	 M126.871,224.789c-1.472,0-2.664,1.064-2.664,2.378c0,1.313,1.192,2.377,2.664,2.377c1.471,0,2.664-1.065,2.664-2.377
	C129.535,225.853,128.342,224.789,126.871,224.789z M87.705,236.872c-1.472,0-2.664,1.064-2.664,2.378
	c0,1.313,1.192,2.377,2.664,2.377c1.471,0,2.664-1.065,2.664-2.377C90.368,237.936,89.176,236.872,87.705,236.872z M103.333,236.872
	c-1.472,0-2.664,1.064-2.664,2.378c0,1.313,1.192,2.377,2.664,2.377c1.471,0,2.664-1.065,2.664-2.377
	C105.997,237.936,104.805,236.872,103.333,236.872z M167.432,233.872c-1.123,0-2.032,0.812-2.032,1.814
	c0,1.001,0.91,1.813,2.032,1.813c1.122,0,2.032-0.813,2.032-1.813C169.464,234.684,168.554,233.872,167.432,233.872z
	 M162.855,233.872c-1.123,0-2.032,0.812-2.032,1.814c0,1.001,0.91,1.813,2.032,1.813c1.122,0,2.032-0.813,2.032-1.813
	C164.887,234.684,163.978,233.872,162.855,233.872z M158.278,233.872c-1.123,0-2.032,0.812-2.032,1.814
	c0,1.001,0.91,1.813,2.032,1.813s2.032-0.813,2.032-1.813C160.31,234.684,159.401,233.872,158.278,233.872z M153.702,233.872
	c-1.123,0-2.032,0.812-2.032,1.814c0,1.001,0.91,1.813,2.032,1.813c1.122,0,2.032-0.813,2.032-1.813
	C155.733,234.684,154.824,233.872,153.702,233.872z M137.702,240.872c-1.123,0-2.032,0.812-2.032,1.814
	c0,1.001,0.91,1.813,2.032,1.813c1.122,0,2.032-0.813,2.032-1.813C139.733,241.684,138.824,240.872,137.702,240.872z
	 M144.702,240.872c-1.123,0-2.032,0.812-2.032,1.814c0,1.001,0.91,1.813,2.032,1.813c1.122,0,2.032-0.813,2.032-1.813
	C146.733,241.684,145.824,240.872,144.702,240.872z M141.125,245.872c-1.123,0-2.032,0.812-2.032,1.814
	c0,1.001,0.91,1.813,2.032,1.813c1.122,0,2.032-0.813,2.032-1.813C143.157,246.684,142.248,245.872,141.125,245.872z
	 M118.121,181.688c-1.07,0-1.938,0.774-1.938,1.729c0,0.955,0.867,1.729,1.938,1.729c1.07,0,1.937-0.774,1.937-1.729
	C120.058,182.461,119.191,181.688,118.121,181.688z M129.66,178.688c-1.368,0-2.476,0.989-2.476,2.21
	c0,1.22,1.108,2.209,2.476,2.209c1.367,0,2.475-0.99,2.475-2.209C132.135,179.677,131.027,178.688,129.66,178.688z M129.66,184.688
	c-1.368,0-2.476,0.989-2.476,2.21c0,1.22,1.108,2.209,2.476,2.209c1.367,0,2.475-0.99,2.475-2.209
	C132.135,185.677,131.027,184.688,129.66,184.688z M136.66,178.688c-1.368,0-2.476,0.989-2.476,2.21c0,1.22,1.108,2.209,2.476,2.209
	c1.367,0,2.475-0.99,2.475-2.209C139.135,179.677,138.027,178.688,136.66,178.688z M118.121,185.688
	c-1.07,0-1.938,0.774-1.938,1.729c0,0.955,0.867,1.729,1.938,1.729c1.07,0,1.937-0.774,1.937-1.729
	C120.058,186.461,119.191,185.688,118.121,185.688z M118.121,189.688c-1.07,0-1.938,0.774-1.938,1.729
	c0,0.955,0.867,1.729,1.938,1.729c1.07,0,1.937-0.774,1.937-1.729C120.058,190.461,119.191,189.688,118.121,189.688z
	 M118.121,193.688c-1.07,0-1.938,0.774-1.938,1.729c0,0.955,0.867,1.729,1.938,1.729c1.07,0,1.937-0.774,1.937-1.729
	C120.058,194.461,119.191,193.688,118.121,193.688z M118.121,197.688c-1.07,0-1.938,0.774-1.938,1.729
	c0,0.955,0.867,1.729,1.938,1.729c1.07,0,1.937-0.774,1.937-1.729C120.058,198.461,119.191,197.688,118.121,197.688z
	 M118.121,201.688c-1.07,0-1.938,0.774-1.938,1.729c0,0.955,0.867,1.729,1.938,1.729c1.07,0,1.937-0.774,1.937-1.729
	C120.058,202.461,119.191,201.688,118.121,201.688z M118.121,205.688c-1.07,0-1.938,0.774-1.938,1.729
	c0,0.955,0.867,1.729,1.938,1.729c1.07,0,1.937-0.774,1.937-1.729C120.058,206.461,119.191,205.688,118.121,205.688z
	 M142.121,191.688c-1.07,0-1.938,0.774-1.938,1.729c0,0.955,0.867,1.729,1.938,1.729c1.07,0,1.937-0.774,1.937-1.729
	C144.058,192.461,143.191,191.688,142.121,191.688z M142.121,195.688c-1.07,0-1.938,0.774-1.938,1.729
	c0,0.955,0.867,1.729,1.938,1.729c1.07,0,1.937-0.774,1.937-1.729C144.058,196.461,143.191,195.688,142.121,195.688z
	 M142.121,199.688c-1.07,0-1.938,0.774-1.938,1.729c0,0.955,0.867,1.729,1.938,1.729c1.07,0,1.937-0.774,1.937-1.729
	C144.058,200.461,143.191,199.688,142.121,199.688z M142.121,203.688c-1.07,0-1.938,0.774-1.938,1.729
	c0,0.955,0.867,1.729,1.938,1.729c1.07,0,1.937-0.774,1.937-1.729C144.058,204.461,143.191,203.688,142.121,203.688z
	 M142.121,207.688c-1.07,0-1.938,0.774-1.938,1.729c0,0.955,0.867,1.729,1.938,1.729c1.07,0,1.937-0.774,1.937-1.729
	C144.058,208.461,143.191,207.688,142.121,207.688z M142.121,211.688c-1.07,0-1.938,0.774-1.938,1.729
	c0,0.955,0.867,1.729,1.938,1.729c1.07,0,1.937-0.774,1.937-1.729C144.058,212.461,143.191,211.688,142.121,211.688z
	 M142.121,215.688c-1.07,0-1.938,0.774-1.938,1.729c0,0.955,0.867,1.729,1.938,1.729c1.07,0,1.937-0.774,1.937-1.729
	C144.058,216.461,143.191,215.688,142.121,215.688z M152.121,191.688c-1.07,0-1.938,0.774-1.938,1.729
	c0,0.955,0.867,1.729,1.938,1.729c1.07,0,1.937-0.774,1.937-1.729C154.058,192.461,153.191,191.688,152.121,191.688z
	 M152.121,195.688c-1.07,0-1.938,0.774-1.938,1.729c0,0.955,0.867,1.729,1.938,1.729c1.07,0,1.937-0.774,1.937-1.729
	C154.058,196.461,153.191,195.688,152.121,195.688z M152.121,199.688c-1.07,0-1.938,0.774-1.938,1.729
	c0,0.955,0.867,1.729,1.938,1.729c1.07,0,1.937-0.774,1.937-1.729C154.058,200.461,153.191,199.688,152.121,199.688z
	 M152.121,203.688c-1.07,0-1.938,0.774-1.938,1.729c0,0.955,0.867,1.729,1.938,1.729c1.07,0,1.937-0.774,1.937-1.729
	C154.058,204.461,153.191,203.688,152.121,203.688z M152.121,207.688c-1.07,0-1.938,0.774-1.938,1.729
	c0,0.955,0.867,1.729,1.938,1.729c1.07,0,1.937-0.774,1.937-1.729C154.058,208.461,153.191,207.688,152.121,207.688z
	 M152.121,211.688c-1.07,0-1.938,0.774-1.938,1.729c0,0.955,0.867,1.729,1.938,1.729c1.07,0,1.937-0.774,1.937-1.729
	C154.058,212.461,153.191,211.688,152.121,211.688z M152.121,215.688c-1.07,0-1.938,0.774-1.938,1.729
	c0,0.955,0.867,1.729,1.938,1.729c1.07,0,1.937-0.774,1.937-1.729C154.058,216.461,153.191,215.688,152.121,215.688z
	 M90.235,179.688c-1.686,0-3.052,1.219-3.052,2.724c0,1.504,1.366,2.724,3.052,2.724s3.052-1.219,3.052-2.724
	C93.287,180.907,91.921,179.688,90.235,179.688z M90.235,185.688c-1.686,0-3.052,1.219-3.052,2.724c0,1.504,1.366,2.724,3.052,2.724
	s3.052-1.219,3.052-2.724C93.287,186.907,91.921,185.688,90.235,185.688z M167.935,168.405c-1.179,0-2.135,0.846-2.135,1.891
	s0.956,1.891,2.135,1.891s2.135-0.846,2.135-1.891S169.114,168.405,167.935,168.405z M167.935,172.405
	c-1.179,0-2.135,0.846-2.135,1.891s0.956,1.891,2.135,1.891s2.135-0.846,2.135-1.891S169.114,172.405,167.935,172.405z
	 M167.935,176.405c-1.179,0-2.135,0.846-2.135,1.891s0.956,1.891,2.135,1.891s2.135-0.846,2.135-1.891
	S169.114,176.405,167.935,176.405z M90.235,191.688c-1.686,0-3.052,1.219-3.052,2.724c0,1.504,1.366,2.724,3.052,2.724
	s3.052-1.219,3.052-2.724C93.287,192.907,91.921,191.688,90.235,191.688z M134.285,161.536c-1.164,0-2.107,0.842-2.107,1.881
	c0,1.039,0.943,1.88,2.107,1.88s2.106-0.842,2.106-1.88C136.392,162.377,135.449,161.536,134.285,161.536z M138.285,161.536
	c-1.164,0-2.107,0.842-2.107,1.881c0,1.039,0.943,1.88,2.107,1.88s2.106-0.842,2.106-1.88
	C140.392,162.377,139.449,161.536,138.285,161.536z M142.285,161.536c-1.164,0-2.107,0.842-2.107,1.881
	c0,1.039,0.943,1.88,2.107,1.88s2.106-0.842,2.106-1.88C144.392,162.377,143.449,161.536,142.285,161.536z M146.285,161.536
	c-1.164,0-2.107,0.842-2.107,1.881c0,1.039,0.943,1.88,2.107,1.88s2.106-0.842,2.106-1.88
	C148.392,162.377,147.449,161.536,146.285,161.536z M179.273,141.52c-2.17,0-3.929,1.57-3.929,3.507
	c0,1.937,1.759,3.506,3.929,3.506c2.169,0,3.928-1.57,3.928-3.506C183.202,143.09,181.443,141.52,179.273,141.52z M122.25,151.601
	c-2.17,0-3.929,1.57-3.929,3.507c0,1.937,1.759,3.506,3.929,3.506c2.169,0,3.928-1.57,3.928-3.506
	C126.179,153.171,124.42,151.601,122.25,151.601z M158.429,151.601c-2.17,0-3.929,1.57-3.929,3.507c0,1.937,1.759,3.506,3.929,3.506
	c2.169,0,3.928-1.57,3.928-3.506C162.357,153.171,160.598,151.601,158.429,151.601z M80.713,163.159l-7,6.5v40l3.5,3.5
	 M81.112,216.701l-0.399,7.049l-7,3.75v20.75l5.287,5.5h109.5V166.5l-7.5-18.25 M122.25,152v-25.75H82.429l0,9.75 M126.179,155.108
	l28.321,0 M175.345,145.027l-8.845,0v10.081l-4.143,0 M132.178,163.417l-22.428-0.258v-3.151v-4.9v-15.601H86.357 M86.357,147.06
	H106v9.441V167.5h32.285v-2.203 M86.357,153.534h15.982v5.371V171h39.946v-5.703 M86.357,160.008h11.697v7.492v6.75h48.231v-8.953
	 M82.428,163.514l0,8.986l2.612,1.75h5.195v5.438 M87.184,187.412l-6.071,0v22.276 M152.121,191.688v-28.173l-3.729-0.098
	 M126.871,224.789v-17.372h-6.813 M105.184,192.417h-4.514v-10.006l-7.382,0 M93.287,194.412l2.713,0v10.735h-8.296l0,31.726
	 M107.121,218.146v6.643h-3.788v12.083 M129.535,227.167h6.644v-17.75h4.005 M105.997,239.25h20.874v-9.706 M154.058,209.417h4.371
	v-50.803 M154.058,213.417h23.108v-39.121h-7.097 M169.333,235.506h9.833v-15.167v-50.043h-9.097 M87.705,241.627l0,2.248h42.671
	v-8.189h7.326l0,5.187 M146.733,242.686l2.517,0V225.25h-7.129v-6.104 M141.125,249.5l0,2.334h17.304l-0.15-14.334 M162.855,233.872
	v-11.035l-2.545-5.42h-6.252 M120.058,199.417h9.602v-10.31 M127.184,180.898h-3.719l-2.298-4.711h-10.833v28.23h-1.275
	 M150.184,201.417H147.5v-9l-5.379-5.52h-5.461v-3.79"/>
</svg>
