<?xml version="1.0" encoding="utf-8"?>
<!-- Generator: Adobe Illustrator 16.0.0, SVG Export Plug-In . SVG Version: 6.00 Build 0)  -->
<!DOCTYPE svg PUBLIC "-//W3C//DTD SVG 1.1//EN" "http://www.w3.org/Graphics/SVG/1.1/DTD/svg11.dtd">
<svg version="1.1" id="Layer_1" xmlns="http://www.w3.org/2000/svg" xmlns:xlink="http://www.w3.org/1999/xlink" x="0px" y="0px"
	 width="811.459px" height="463.08px" viewBox="0 0 811.459 463.08" style="enable-background:new 0 0 811.459 463.08;"
	 xml:space="preserve">
<path style="fill:none;stroke:#000000;stroke-width:10;stroke-miterlimit:10;" d="M139.912,52.827h-38.755v37.51H-11.574
	 M153.531,39.666c-7.521,0-13.619,5.893-13.619,13.162s6.098,13.162,13.619,13.162c7.521,0,13.618-5.893,13.618-13.162
	S161.052,39.666,153.531,39.666z M438.491,72.712c-7.521,0-13.619,5.893-13.619,13.162c0,7.269,6.098,13.162,13.619,13.162
	s13.619-5.893,13.619-13.162C452.11,78.605,446.013,72.712,438.491,72.712z M439.478,291.682c-7.262,0-13.149,5.893-13.149,13.16
	c0,7.271,5.888,13.163,13.149,13.163s13.148-5.893,13.148-13.163C452.626,297.574,446.739,291.682,439.478,291.682z
	 M350.216,293.885c-7.262,0-13.149,5.893-13.149,13.16c0,7.27,5.888,13.163,13.149,13.163c7.261,0,13.148-5.894,13.148-13.163
	C363.364,299.777,357.477,293.885,350.216,293.885z M663.1,199.724c-5.476,0-9.915,4.29-9.915,9.582s4.439,9.581,9.915,9.581
	s9.914-4.289,9.914-9.581S668.575,199.724,663.1,199.724z M153.531,109.063c-7.521,0-13.619,5.893-13.619,13.162
	c0,7.269,6.098,13.162,13.619,13.162c7.521,0,13.618-5.893,13.618-13.162C167.149,114.957,161.052,109.063,153.531,109.063z
	 M101.157,90.337v31.888h38.755 M424.872,85.874h-88.908V52.827H167.149 M452.11,85.874h265.702 M713.253,85.874h62.691
	 M673.014,209.305h122.308v-87.08l-23.937-36.351 M653.185,209.305H396.437v39.656h-46.221v44.924 M441.557,293.885v-44.924h-45.12
	 M350.216,320.208v32.3l46.221,33.047l45.12-32.675 M439.478,357.082v-39.824 M396.437,385.555v110.523"/>
</svg>
